<?xml version="1.0" encoding="utf-8"?>
<!-- Generator: Adobe Illustrator 27.1.1, SVG Export Plug-In . SVG Version: 6.00 Build 0)  -->
<svg version="1.1" id="Ebene_1" xmlns="http://www.w3.org/2000/svg" xmlns:xlink="http://www.w3.org/1999/xlink" x="0px" y="0px"
	 viewBox="0 0 25 25" style="enable-background:new 0 0 25 25;" xml:space="preserve">
<style type="text/css">
	.st0{fill:#FFFFFF;}
	.st1{clip-path:url(#SVGID_00000016760887638441335120000001679409553704764307_);}
</style>
<g id="Gruppe_105" transform="translate(-38.204 -804.565)">
	<g id="Gruppe_75" transform="translate(38.204 804.565)">
		<path id="Pfad_46" class="st0" d="M7.19,13.89h3.58l-1.95,7.29l6.92-10.05h-3.56l1.84-7.24L7.19,13.89z"/>
		<g id="Gruppe_69">
			<g>
				<defs>
					<rect id="SVGID_1_" x="2.55" y="3.89" width="19.55" height="17.29"/>
				</defs>
				<clipPath id="SVGID_00000026159185912772549110000005800265026045721490_">
					<use xlink:href="#SVGID_1_"  style="overflow:visible;"/>
				</clipPath>
				<g id="Gruppe_68" style="clip-path:url(#SVGID_00000026159185912772549110000005800265026045721490_);">
					<path id="Pfad_47" class="st0" d="M18.55,7.42H14.1l-0.26,1.12h4.72c0.61,0,1.11,0.5,1.11,1.11v5.77c0,0.61-0.5,1.11-1.11,1.11
						h-5.51l-0.62,1.12h6.12c1.23,0,2.23-1,2.23-2.23V9.65C20.78,8.42,19.78,7.42,18.55,7.42 M2.55,9.65v5.77
						c0,1.23,1,2.23,2.23,2.23h4.05l0.27-1.12H4.78c-0.61,0-1.11-0.5-1.11-1.11V9.65c0-0.61,0.5-1.11,1.11-1.11h5.04l0.67-1.12H4.78
						C3.55,7.42,2.55,8.42,2.55,9.65"/>
					<path id="Pfad_48" class="st0" d="M21.98,14.24h-1.87v-3.41h1.87c0.07,0,0.12,0.05,0.12,0.12v3.18
						C22.1,14.19,22.04,14.24,21.98,14.24"/>
				</g>
			</g>
		</g>
	</g>
</g>
</svg>
