<?xml version="1.0" encoding="utf-8"?>
<!-- Generator: Adobe Illustrator 27.1.1, SVG Export Plug-In . SVG Version: 6.00 Build 0)  -->
<svg version="1.1" id="Ebene_1" xmlns="http://www.w3.org/2000/svg" xmlns:xlink="http://www.w3.org/1999/xlink" x="0px" y="0px"
	 viewBox="0 0 25 25" style="enable-background:new 0 0 25 25;" xml:space="preserve">
<style type="text/css">
	.st0{clip-path:url(#SVGID_00000040564063195839539380000012429956767155003839_);}
	.st1{fill:#FFFFFF;}
</style>
<g id="Gruppe_104" transform="translate(0 -0.004)">
	<g>
		<defs>
			<rect id="SVGID_1_" x="2.54" y="3.12" width="19.55" height="18.84"/>
		</defs>
		<clipPath id="SVGID_00000164493640711274157810000001649500542326344853_">
			<use xlink:href="#SVGID_1_"  style="overflow:visible;"/>
		</clipPath>
		
			<g id="Gruppe_59" transform="translate(0 0.004)" style="clip-path:url(#SVGID_00000164493640711274157810000001649500542326344853_);">
			<path id="Pfad_34" class="st1" d="M6.74,21.96h-1.2c-0.49,0-0.88-0.39-0.88-0.88l0,0v-4.65c0-0.49,0.39-0.88,0.88-0.88
				c0,0,0,0,0,0h1.2c0.49,0,0.88,0.39,0.88,0.88l0,0v4.65C7.62,21.56,7.23,21.96,6.74,21.96C6.74,21.96,6.74,21.96,6.74,21.96"/>
			<path id="Pfad_35" class="st1" d="M11.39,21.96h-1.2c-0.49,0-0.88-0.39-0.88-0.88v-8.52c0-0.49,0.39-0.88,0.88-0.88h1.2
				c0.49,0,0.88,0.39,0.88,0.88v8.52C12.27,21.56,11.88,21.96,11.39,21.96"/>
			<path id="Pfad_36" class="st1" d="M16.04,21.96h-1.2c-0.49,0-0.88-0.39-0.88-0.88c0,0,0,0,0,0v-7.13c0-0.49,0.39-0.88,0.88-0.88
				c0,0,0,0,0,0h1.2c0.49,0,0.88,0.39,0.88,0.88c0,0,0,0,0,0v7.13C16.92,21.56,16.53,21.96,16.04,21.96
				C16.04,21.96,16.04,21.96,16.04,21.96"/>
			<path id="Pfad_37" class="st1" d="M20.69,21.96h-1.2c-0.49,0-0.88-0.39-0.88-0.88l0,0V10.55c0-0.49,0.39-0.88,0.88-0.88l0,0h1.2
				c0.49,0,0.88,0.39,0.88,0.88l0,0v10.52C21.57,21.56,21.17,21.96,20.69,21.96L20.69,21.96"/>
			<path id="Pfad_38" class="st1" d="M3.37,14.73c-0.46,0-0.83-0.37-0.83-0.83c0-0.23,0.1-0.46,0.27-0.62l6.96-6.3
				c0.28-0.25,0.68-0.29,1-0.09l3.84,2.4l5.71-5.59c0.32-0.33,0.85-0.33,1.18-0.01c0.33,0.32,0.33,0.85,0.01,1.18
				c-0.01,0.01-0.01,0.01-0.02,0.02l-6.17,6.05c-0.27,0.27-0.7,0.31-1.02,0.11l-3.87-2.41l-6.49,5.88
				C3.77,14.65,3.57,14.73,3.37,14.73"/>
			<path id="Pfad_39" class="st1" d="M18.72,4.06l2.36,2.41c0.11,0.11,0.29,0.11,0.4,0c0.04-0.04,0.07-0.09,0.08-0.15l0.52-2.87
				c0.03-0.15-0.08-0.3-0.23-0.33c-0.03-0.01-0.06-0.01-0.09,0l-2.88,0.46c-0.15,0.03-0.26,0.17-0.23,0.32
				C18.66,3.96,18.68,4.02,18.72,4.06"/>
		</g>
	</g>
</g>
</svg>
