<?xml version="1.0" encoding="utf-8"?>
<!-- Generator: Adobe Illustrator 27.1.1, SVG Export Plug-In . SVG Version: 6.00 Build 0)  -->
<svg version="1.1" id="Ebene_1" xmlns="http://www.w3.org/2000/svg" xmlns:xlink="http://www.w3.org/1999/xlink" x="0px" y="0px"
	 viewBox="0 0 25 25" style="enable-background:new 0 0 25 25;" xml:space="preserve">
<style type="text/css">
	.st0{fill:#676766;}
</style>
<g id="Gruppe_108" transform="translate(0.5 -0.005)">
	<g id="Gruppe_63_00000031199549215911299140000012657751217659566479_" transform="translate(0 0.005)">
		<path id="Pfad_40_00000145053975158089523420000002285464204447701163_" class="st0" d="M14.78,5.97c0,0.85-2.53,1.54-5.65,1.54
			S3.47,6.82,3.47,5.97S6,4.43,9.12,4.43S14.78,5.12,14.78,5.97"/>
		<path id="Differenzmenge_1" class="st0" d="M9.12,11.24c-3.18,0-5.77-0.71-5.77-1.58V7.91c0-0.1,0.07-0.19,0.18-0.19
			c0.03,0,0.06,0.01,0.09,0.03c0.89,0.6,3.1,1.01,5.5,1.01s4.61-0.41,5.5-1.01c0.03-0.02,0.06-0.03,0.09-0.03
			c0.1,0,0.18,0.09,0.18,0.19v1.44c-0.74,0.03-1.47,0.19-2.16,0.48c-0.73,0.31-1.39,0.75-1.95,1.32l-0.02,0.02l-0.01,0.01
			C10.23,11.21,9.68,11.24,9.12,11.24z"/>
		<path id="Differenzmenge_2" class="st0" d="M9.02,14.96L9.02,14.96c-3.12-0.02-5.66-0.72-5.66-1.58v-1.75
			c0-0.1,0.07-0.19,0.18-0.2c0.03,0,0.06,0.01,0.09,0.03c0.89,0.6,3.1,1.01,5.5,1.01c0.22,0,0.44,0,0.66-0.01
			c-0.11,0.2-0.21,0.41-0.3,0.62C9.23,13.69,9.07,14.32,9.02,14.96L9.02,14.96z"/>
		<path id="Differenzmenge_3" class="st0" d="M9.12,18.69c-3.18,0-5.77-0.71-5.77-1.58v-1.75c0-0.1,0.08-0.19,0.18-0.19
			c0.03,0,0.06,0.01,0.09,0.03c0.88,0.6,3.05,1,5.42,1.01c0.07,0.57,0.22,1.13,0.44,1.66c0.12,0.28,0.26,0.55,0.41,0.81
			C9.62,18.69,9.36,18.69,9.12,18.69z"/>
		<path id="Pfad_45_00000129909825322301015380000004128576785127548042_" class="st0" d="M20.3,15.48c0,2.85-2.31,5.17-5.17,5.17
			s-5.17-2.31-5.17-5.17c0-2.85,2.31-5.17,5.17-5.17h0C17.98,10.32,20.3,12.63,20.3,15.48"/>
	</g>
</g>
</svg>
