<?xml version="1.0" encoding="utf-8"?>
<!-- Generator: Adobe Illustrator 27.1.1, SVG Export Plug-In . SVG Version: 6.00 Build 0)  -->
<svg version="1.1" id="Ebene_1" xmlns="http://www.w3.org/2000/svg" xmlns:xlink="http://www.w3.org/1999/xlink" x="0px" y="0px"
	 viewBox="0 0 25 25" style="enable-background:new 0 0 25 25;" xml:space="preserve">
<style type="text/css">
	.st0{opacity:0.7;}
	.st1{fill:#010202;}
</style>
<g id="Gruppe_103" transform="translate(0 -3.321)" class="st0">
	<path id="Pfad_8" class="st1" d="M12.32,25.41c-5.28,0-9.56-4.28-9.56-9.56c0-5.28,4.28-9.56,9.56-9.56c5.28,0,9.56,4.28,9.56,9.56
		c0,2.53-1.01,4.97-2.8,6.76C17.29,24.41,14.86,25.42,12.32,25.41 M12.32,7.49c-4.62,0-8.37,3.75-8.37,8.37
		c0,4.62,3.75,8.37,8.37,8.37s8.37-3.75,8.37-8.37c0-2.22-0.88-4.35-2.45-5.92C16.67,8.36,14.54,7.48,12.32,7.49"/>
	<path id="Pfad_12" class="st1" d="M12.12,9.42v6.1c0,0.3,0.24,0.54,0.54,0.54h6.1c0.3,0,0.54-0.24,0.54-0.54c0-0.01,0-0.03,0-0.04
		c-0.29-3.52-3.08-6.31-6.6-6.6c-0.3-0.02-0.56,0.2-0.58,0.5C12.12,9.4,12.12,9.41,12.12,9.42"/>
</g>
</svg>
