<?xml version="1.0" encoding="utf-8"?>
<!-- Generator: Adobe Illustrator 27.1.1, SVG Export Plug-In . SVG Version: 6.00 Build 0)  -->
<svg version="1.1" id="Ebene_1" xmlns="http://www.w3.org/2000/svg" xmlns:xlink="http://www.w3.org/1999/xlink" x="0px" y="0px"
	 viewBox="0 0 69.35 192.55" style="enable-background:new 0 0 69.35 192.55;" xml:space="preserve">
<style type="text/css">
	.st0{fill:#FFFFFF;}
</style>
<g id="Gruppe_53" transform="translate(-254.837 -31.255)">
	<g id="Gruppe_52" transform="translate(260.837 147.499)">
		<g>
			<g id="Gruppe_51" transform="translate(0 0.001)">
				<path id="Pfad_18" class="st0" d="M25.71-79.52c-2.36-8.55-0.34-17.7,5.4-24.47c-14.82,0.1-26.76,12.2-26.66,27.02
					S16.64-50.2,31.46-50.3c7.83-0.05,15.24-3.52,20.3-9.49C39.61-59.72,28.93-67.81,25.71-79.52"/>
				<path id="Pfad_19" class="st0" d="M46.39-86.32l0.66-2.37l2.39-0.66L47.04-90l-0.66-2.37L45.73-90l-2.39,0.65l2.39,0.66
					L46.39-86.32z"/>
				<path id="Pfad_20" class="st0" d="M46.47-75.33l-1.65,0.45l1.65,0.45l0.46,1.64l0.46-1.63l1.65-0.45l-1.65-0.45l-0.45-1.63
					L46.47-75.33z"/>
				<path id="Pfad_21" class="st0" d="M37.24-77.77l1.12-4.04l4.07-1.11l-4.07-1.11l-1.12-4.04l-1.12,4.04l-4.08,1.11l4.08,1.11
					L37.24-77.77z"/>
			</g>
		</g>
	</g>
</g>
<g id="Gruppe_115" transform="translate(0 -0.001)">
	<g>
		<g id="Gruppe_56" transform="translate(0 0.001)">
			<path id="Pfad_22" class="st0" d="M34.47,143.72c-9.52,0-17.24,7.72-17.24,17.24c0,9.52,7.72,17.24,17.24,17.24
				s17.24-7.72,17.24-17.24c0,0,0,0,0,0C51.72,151.44,44,143.72,34.47,143.72"/>
			<path id="Pfad_23" class="st0" d="M45.44,144.49c0.58,0.37,1.34,0.2,1.71-0.37c0,0,0,0,0,0l4.1-6.37
				c0.37-0.58,0.2-1.34-0.37-1.71c-0.58-0.37-1.34-0.2-1.72,0.37l-4.1,6.37C44.69,143.35,44.86,144.12,45.44,144.49
				C45.44,144.49,45.44,144.49,45.44,144.49"/>
			<path id="Pfad_24" class="st0" d="M54.05,153.85c0.18,0,0.35-0.04,0.52-0.11l6.89-3.15c0.62-0.28,0.9-1.02,0.61-1.64
				c-0.28-0.62-1.02-0.9-1.64-0.61l-6.89,3.15c-0.62,0.28-0.9,1.02-0.61,1.64C53.12,153.57,53.56,153.85,54.05,153.85"/>
			<path id="Pfad_25" class="st0" d="M63.45,164.46l-7.5-1.08c-0.68-0.11-1.32,0.34-1.43,1.02s0.34,1.32,1.02,1.43
				c0.02,0,0.04,0.01,0.06,0.01l7.5,1.08c0.68,0.11,1.32-0.34,1.43-1.02c0.11-0.68-0.34-1.32-1.02-1.43
				C63.49,164.47,63.47,164.46,63.45,164.46"/>
			<path id="Pfad_26" class="st0" d="M57.27,179.66l-5.72-4.96c-0.51-0.45-1.3-0.4-1.75,0.11c-0.45,0.51-0.4,1.3,0.11,1.75
				c0.01,0,0.01,0.01,0.02,0.01l5.73,4.96c0.51,0.45,1.3,0.4,1.75-0.11c0.45-0.51,0.4-1.3-0.11-1.75
				C57.29,179.67,57.28,179.67,57.27,179.66"/>
			<path id="Pfad_27" class="st0" d="M41.73,181.84c-0.18-0.66-0.87-1.05-1.53-0.86c-0.66,0.18-1.05,0.87-0.86,1.53
				c0,0.01,0.01,0.02,0.01,0.03l2.14,7.27c0.18,0.66,0.87,1.05,1.53,0.86c0.66-0.18,1.05-0.87,0.86-1.53c0-0.01-0.01-0.02-0.01-0.03
				L41.73,181.84z"/>
			<path id="Pfad_28" class="st0" d="M28.76,181c-0.66-0.19-1.35,0.18-1.54,0.84l-2.14,7.27c-0.2,0.65,0.17,1.35,0.82,1.55
				s1.35-0.17,1.55-0.82c0-0.01,0.01-0.02,0.01-0.03l2.14-7.27C29.8,181.89,29.42,181.2,28.76,181"/>
			<path id="Pfad_29" class="st0" d="M17.4,174.7l-5.73,4.96c-0.52,0.44-0.58,1.23-0.14,1.75c0.44,0.52,1.23,0.58,1.75,0.14
				c0.01,0,0.01-0.01,0.02-0.01l5.73-4.96c0.51-0.45,0.56-1.24,0.11-1.75C18.69,174.32,17.92,174.26,17.4,174.7"/>
			<path id="Pfad_30" class="st0" d="M14.4,164.43c-0.1-0.68-0.72-1.15-1.4-1.05l-7.5,1.08c-0.68,0.1-1.15,0.73-1.05,1.41
				c0.09,0.61,0.61,1.06,1.22,1.06c0.06,0,0.12,0,0.18-0.01l7.5-1.08C14.03,165.74,14.5,165.11,14.4,164.43"/>
			<path id="Pfad_31" class="st0" d="M7.49,150.59l6.89,3.15c0.62,0.28,1.36,0.01,1.64-0.61s0.01-1.36-0.61-1.64l-6.89-3.15
				c-0.62-0.28-1.36-0.01-1.64,0.61S6.87,150.31,7.49,150.59L7.49,150.59"/>
			<path id="Pfad_32" class="st0" d="M21.8,144.12c0.37,0.58,1.14,0.74,1.71,0.37c0.58-0.37,0.74-1.14,0.37-1.71l0,0l-4.1-6.37
				c-0.37-0.58-1.14-0.74-1.71-0.37s-0.74,1.14-0.37,1.71L21.8,144.12z"/>
			<path id="Pfad_33" class="st0" d="M34.47,141.27c0.69,0,1.24-0.56,1.24-1.24c0,0,0,0,0,0v-7.58c0-0.69-0.55-1.24-1.24-1.24
				c-0.69,0-1.24,0.55-1.24,1.24c0,0,0,0,0,0.01v7.58C33.23,140.72,33.79,141.27,34.47,141.27L34.47,141.27"/>
		</g>
	</g>
</g>
</svg>
